<svg width="56" height="47" viewBox="0 0 56 47" fill="none" xmlns="http://www.w3.org/2000/svg">
<path fill-rule="evenodd" clip-rule="evenodd" d="M30.7212 18.5015L31.3297 22.3287L35.9684 24.0703L33.0907 28.9005L37.035 32.4996L31.9763 37.1978L38.0796 46.2586C38.1363 46.2756 38.1655 46.284 38.1655 46.284C38.1655 46.284 60.008 24.8165 55.1057 6.52065C54.3354 3.6457 52.7636 1.4753 50.763 0L35.6589 0C31.1162 3.11985 28.2604 9.31772 30.7212 18.5015ZM27.0451 17.2752L28.2926 23.1653L32.9189 24.8985L30.0465 29.7111L33.9795 33.2948L28.9318 37.9768L35.016 47C33.2556 46.4751 5.11432 37.8443 0.647285 21.1731C-3.35878 6.22222 20.1089 -2.35001 27.0451 17.2752Z" fill="#FF0000"/>
</svg>
