<svg width="56" height="62" viewBox="0 0 56 62" fill="none" xmlns="http://www.w3.org/2000/svg">
<path fill-rule="evenodd" clip-rule="evenodd" d="M24.8493 0.63007C24.6278 0.7473 24.4988 0.986973 24.5224 1.23616L24.763 3.78698C24.7784 3.95077 24.728 4.11373 24.6233 4.2403C24.5185 4.36688 24.3679 4.44688 24.2041 4.46233L20.7807 4.78526C20.6169 4.80071 20.4663 4.88071 20.3615 5.00729C20.2568 5.13386 20.2063 5.29682 20.2218 5.46061L20.5447 8.88396C20.5602 9.04775 20.5098 9.21071 20.405 9.33728C20.3003 9.46386 20.1496 9.54386 19.9858 9.55931L16.5625 9.88224C16.3987 9.89769 16.248 9.97769 16.1433 10.1043C16.0385 10.2308 15.9881 10.3938 16.0036 10.5576L16.3265 13.9809C16.3419 14.1447 16.2915 14.3077 16.1868 14.4343C16.082 14.5608 15.9314 14.6408 15.7676 14.6563L12.3442 14.9792C12.1804 14.9947 12.0298 15.0747 11.925 15.2013C11.8203 15.3278 11.7699 15.4908 11.7853 15.6546L12.1082 19.0779C12.1237 19.2417 12.0733 19.4047 11.9685 19.5312C11.8638 19.6578 11.7131 19.7378 11.5493 19.7533L8.12597 20.0762C7.96218 20.0917 7.81153 20.1717 7.70677 20.2982C7.60202 20.4248 7.5516 20.5878 7.56706 20.7516L7.88999 24.1749C7.90544 24.3387 7.85503 24.5017 7.75027 24.6282C7.64552 24.7548 7.49487 24.8348 7.33107 24.8503L3.90773 25.1732C3.74393 25.1886 3.59328 25.2686 3.48853 25.3952C3.38377 25.5218 3.33336 25.6847 3.34881 25.8485L3.67174 29.2719C3.6872 29.4357 3.63678 29.5986 3.53203 29.7252C3.42727 29.8518 3.27662 29.9318 3.11283 29.9472L0.562007 30.1879C0.312823 30.2114 0.101489 30.3829 0.0277582 30.6224C-0.0459761 30.862 0.0318514 31.1225 0.225112 31.2824L36.1469 61.0112C36.3402 61.1711 36.6107 61.1989 36.8322 61.0817C37.0538 60.9644 37.1827 60.7248 37.1592 60.4756L36.9186 57.9248C36.9031 57.761 36.9535 57.598 37.0583 57.4714C37.163 57.3449 37.3137 57.2649 37.4775 57.2494L40.9008 56.9265C41.0646 56.911 41.2153 56.831 41.32 56.7044C41.4248 56.5779 41.4752 56.4149 41.4597 56.2511L41.1368 52.8278C41.1213 52.664 41.1718 52.501 41.2765 52.3744C41.3813 52.2479 41.5319 52.1679 41.6957 52.1524L45.1191 51.8295C45.2829 51.814 45.4335 51.734 45.5383 51.6075C45.643 51.4809 45.6934 51.3179 45.678 51.1541L45.355 47.7308C45.3396 47.567 45.39 47.404 45.4948 47.2775C45.5995 47.1509 45.7502 47.0709 45.914 47.0554L49.3373 46.7325C49.5011 46.7171 49.6518 46.6371 49.7565 46.5105C49.8613 46.3839 49.9117 46.2209 49.8962 46.0572L49.5733 42.6338C49.5578 42.47 49.6083 42.3071 49.713 42.1805C49.8178 42.0539 49.9684 41.9739 50.1322 41.9585L53.5556 41.6355C53.7194 41.6201 53.87 41.5401 53.9748 41.4135C54.0795 41.2869 54.1299 41.124 54.1145 40.9602L53.7915 37.5368C53.7761 37.373 53.8265 37.2101 53.9313 37.0835C54.036 36.9569 54.1867 36.8769 54.3505 36.8615L55.5732 36.7461L55.5732 25.5604L25.5346 0.700522C25.3413 0.54058 25.0709 0.51284 24.8493 0.63007ZM17.8467 23.845C14.621 29.812 16.2023 37.82 21.3553 42.1677L21.5023 42.2893C28.408 47.8943 38.9946 45.6688 43.3698 38.6656C46.625 33.4558 46.141 26.1992 42.2361 21.4675C35.4614 13.2578 22.3283 15.5536 17.8467 23.845ZM38.6254 40.6764C34.1485 44.2346 27.3031 44.1222 22.9153 40.5603C22.8313 40.4915 22.7487 40.4217 22.6666 40.3516C16.9692 35.4181 17.2489 26.2959 22.3993 21.5946C26.879 17.5056 34.3033 17.4079 38.8915 21.2551C44.9543 26.3385 44.345 36.1313 38.6254 40.6764ZM37.2143 22.6954C37.2483 22.9475 37.1752 23.2019 37.0131 23.3977L37.0067 23.3924C36.6728 23.7959 36.0862 23.8795 35.6531 23.5847C31.9842 21.1502 26.994 21.8296 24.1242 25.2973C23.8933 25.5763 23.6801 25.8694 23.4878 26.1761C23.2153 26.6048 22.6624 26.7583 22.2079 26.531C22.2079 26.531 22.2074 26.5307 22.2088 26.5282C21.9754 26.4116 21.8025 26.202 21.7318 25.951C21.6611 25.7 21.7 25.4308 21.8377 25.2099C22.0849 24.8161 22.3571 24.4388 22.6537 24.0803C26.1844 19.8141 32.3478 19.0107 36.8344 22.0718C37.0424 22.2174 37.18 22.4437 37.2143 22.6954Z" fill="#00DED5"/>
</svg>
