<svg width="74" height="57" viewBox="0 0 74 57" fill="none" xmlns="http://www.w3.org/2000/svg">
<path fill-rule="evenodd" clip-rule="evenodd" d="M52.3266 11.921L73.837 33.3203C75.2822 34.7655 66.8336 38.8786 59.6635 33.0424C55.4615 29.6283 52.3259 27.1254 49.9589 25.2361L49.9587 25.2359L49.9585 25.2358C48.3181 23.9264 47.0469 22.9117 46.0458 22.0926C43.6001 20.0917 43.0999 16.4788 45.1009 13.8108L45.9346 12.7548L31.7661 0.000244141H41.6108L52.3266 11.921ZM10.0494 0.000244141L37.1517 30.0967L41.0981 30.0411C42.9323 29.9856 44.9889 30.9304 46.5452 32.4868L48.2683 33.9875L60.3852 46.6603C60.552 46.8271 60.552 47.1606 60.3852 47.3273L59.1068 48.6057C58.9401 48.7724 58.6066 48.7724 58.4399 48.6057L45.9338 36.6554C45.6559 36.3775 45.2112 36.3775 44.9333 36.6554L44.433 37.1557C44.1551 37.4336 44.1551 37.8783 44.433 38.1562C46.7119 40.5462 56.3833 50.6623 56.3833 50.6623C56.55 50.829 56.55 51.1625 56.3833 51.3292L55.1049 52.6077C54.9381 52.7744 54.6047 52.7744 54.4379 52.6077L41.9318 40.6574C41.6539 40.3795 41.2092 40.3795 40.9313 40.6574L40.4311 41.1576C40.1532 41.4355 40.1532 41.8802 40.4311 42.1581C42.71 44.5482 52.3813 54.6642 52.3813 54.6642C52.5481 54.831 52.5481 55.1644 52.3813 55.3312L51.103 56.6096C50.9362 56.7763 50.6027 56.7764 50.436 56.6096L37.7631 44.4926L36.2068 42.9363C34.6505 41.38 33.7056 39.3234 33.7612 37.4892L33.8168 33.4317L1.41212 4.25081C0.411629 3.36149 0.411659 1.80518 1.30098 0.915855L2.21659 0.000244141H10.0494Z" fill="#0054FF"/>
</svg>
