<svg width="70" height="43" viewBox="0 0 70 43" fill="none" xmlns="http://www.w3.org/2000/svg">
<path d="M68.6776 11.9275C68.6048 11.8107 68.5109 11.7105 68.4014 11.6329C67.6477 11.1012 66.8823 10.6303 66.1277 10.0414C65.3732 9.45246 64.8494 9.0849 64.2224 8.57448C62.7761 7.37871 61.3976 6.07739 59.948 4.86822C58.4303 3.57589 56.7526 2.51306 54.9621 1.70984C54.1371 1.34309 53.2928 1.02785 52.4335 0.765698L50.9906 0.387701C50.4821 0.283263 49.9685 0.209322 49.4523 0.166227C48.5565 0.0706815 47.6539 0.0733293 46.7586 0.174131C46.2535 0.216013 45.7529 0.306087 45.2628 0.443269L45.1497 0.475588C44.1789 0.740757 43.247 1.14703 42.3802 1.68299C40.9167 2.67816 39.6622 3.98516 38.6954 5.52185C38.3839 5.99861 38.0885 6.48518 37.7963 6.98516C37.5042 7.48513 37.1777 8.00928 36.8353 8.52362C36.4772 9.03179 36.0708 9.49923 35.6226 9.91851C35.4292 10.059 35.2264 10.1841 35.0158 10.2929C34.7591 10.3949 34.4938 10.4706 34.2236 10.5191C33.4194 10.5923 32.6102 10.573 31.8099 10.4614C30.0392 10.1196 28.3244 9.51759 26.5712 9.08458C26.1366 8.96448 25.6895 8.84797 25.2365 8.76185C24.7836 8.67574 24.1503 8.5693 23.606 8.49492C21.8573 8.25389 20.0802 8.53751 18.4745 9.31387L17.519 9.80218C16.9086 10.1589 16.3324 10.5784 15.7987 11.0547C15.4885 11.3309 15.1937 11.6261 14.9158 11.9389C14.7483 12.1303 14.5648 12.312 14.4133 12.5133L13.4017 13.8507C13.1019 14.2667 12.8307 14.6889 12.5469 15.1147C12.0194 15.9117 11.6027 16.7201 11.0602 17.5645L9.69933 19.9785C9.15529 20.9239 8.61461 21.8826 8.05125 22.8048C7.48789 23.727 7.00648 24.439 6.45052 25.2298C5.66833 26.3105 4.82392 27.3384 3.92216 28.3075C3.02595 29.2609 2.08303 30.163 1.09735 31.0102L1.0219 31.0317C0.83716 31.159 0.699554 31.3506 0.632545 31.5738C0.575014 31.8128 0.604983 32.0662 0.716365 32.2825C0.773033 32.3847 0.848359 32.4738 0.937891 32.5444C1.02742 32.6151 1.12934 32.6659 1.23761 32.6938C1.35293 32.7333 1.47548 32.7427 1.5949 32.7211C1.98029 32.7778 2.36014 32.8712 2.72988 33.0003L4.21991 33.5659L6.72862 34.645C8.41336 35.3418 10.0864 36.0993 11.7712 36.7961C13.4559 37.4928 15.2422 38.2181 17.0174 38.8459L19.9705 39.8699C20.7642 40.1317 21.5544 40.38 22.3698 40.6212C22.8614 40.7537 23.3723 40.9095 23.8194 41.026L25.4166 41.3743C25.8444 41.4676 26.2621 41.5207 26.6991 41.597L28.0948 41.7874C28.5536 41.8431 29.0032 41.9158 29.4804 41.9375L31.0898 42.0668C31.5989 42.1082 32.1105 42.1058 32.6162 42.1337L33.9647 42.1365C34.8553 42.1407 35.7359 42.1047 36.6314 42.0213C37.527 41.938 38.5869 41.8651 39.557 41.703C40.5271 41.5409 41.4025 41.3771 42.3146 41.1454L43.7482 40.736L45.1104 40.2034C45.9903 39.8812 46.8474 39.4924 47.6753 39.04C48.4775 38.6003 49.2544 38.1099 50.0017 37.5713C51.6164 36.4351 53.1481 35.2364 54.6268 33.8805C56.1054 32.5246 57.507 31.2913 58.8716 29.9105C60.1528 28.5686 61.3568 27.1455 62.4771 25.649C63.7026 24.0918 64.8349 22.454 65.8672 20.7452C66.3535 19.9455 66.7878 19.0459 67.202 18.2812C67.6289 17.3698 68.0053 16.4326 68.3294 15.4743C68.6331 14.6456 68.8928 13.7993 69.1073 12.9395C69.1474 12.744 69.1273 12.5399 69.0499 12.3576C68.9725 12.1753 68.8419 12.0244 68.6776 11.9275ZM50.6867 18.7456L48.394 20.3483C47.613 20.8873 46.832 21.4263 46.009 21.9055C45.0006 22.5072 43.9635 23.0527 42.902 23.5397C42.3865 23.6869 41.9079 23.9816 41.415 24.1654C40.9221 24.3493 40.2657 24.5798 39.6781 24.762C38.6227 25.0652 37.5489 25.2903 36.4644 25.4355C34.6297 25.6434 32.7941 25.7941 30.9441 25.834L28.1784 25.8768C27.266 25.8932 26.3435 25.8694 25.4185 25.8893L24.5103 25.9763L24.9379 25.8542C28.337 24.5244 31.6798 23.024 35.105 21.7443C36.8193 21.1111 38.5336 20.4779 40.2546 19.8716C41.9756 19.2652 43.7227 18.7089 45.4841 18.2633C47.2456 17.8178 49.1371 17.4069 50.9531 17.0176L53.6377 16.4377L54.4677 16.2007C53.1695 16.988 51.9201 17.8619 50.6867 18.7456Z" fill="#FF0000"/>
</svg>
