<svg width="72" height="68" viewBox="0 0 72 68" fill="none" xmlns="http://www.w3.org/2000/svg">
<path fill-rule="evenodd" clip-rule="evenodd" d="M10.7689 11.0081L17.3935 17.6327L11.1278 23.8984L15.6313 28.4019L32.9925 11.0407L28.489 6.53725L21.0485 13.9777L14.4239 7.35309L21.7769 0H17.0679C15.4838 0 13.9284 0.122774 12.4107 0.359327L-0.000259399 12.7703L4.5032 17.2738L10.7689 11.0081ZM42.7821 41.3243L38.5723 45.5341L21.3417 28.3035L25.5515 24.0937L42.7821 41.3243ZM50.2226 33.8838L46.0128 38.0936L28.7822 20.863L32.992 16.6532L50.2226 33.8838ZM56.4011 56.6403L49.7764 50.0156L43.5107 56.2813L39.0073 51.7778L56.3684 34.4167L60.8719 38.9201L53.4314 46.3606L60.056 52.9853L67.4965 45.5448L72 50.0482L54.6388 67.4094L50.1354 62.9059L56.4011 56.6403Z" fill="#FF0000"/>
</svg>
