<svg width="72" height="57" viewBox="0 0 72 57" fill="none" xmlns="http://www.w3.org/2000/svg">
<path fill-rule="evenodd" clip-rule="evenodd" d="M27.3935 27.7048L14.3193 14.6306L22.4129 6.53708C26.0232 2.92673 31.8767 2.92674 35.4871 6.53708C39.0974 10.1474 39.0974 16.0009 35.4871 19.6113L27.3935 27.7048Z" fill="#0054FF"/>
<path fill-rule="evenodd" clip-rule="evenodd" d="M47.1999 51.252L51.9854 33.3923L63.0413 36.3548C67.9732 37.6763 70.8999 42.7455 69.5784 47.6773C68.2569 52.6092 63.1877 55.5359 58.2558 54.2144L47.1999 51.252Z" fill="#0054FF"/>
<path fill-rule="evenodd" clip-rule="evenodd" d="M6.53709 22.4131C2.92674 26.0235 2.92676 31.877 6.53709 35.4873C10.1474 39.0976 16.0009 39.0976 19.6113 35.4873L27.3935 27.705L14.3193 14.6309L6.53709 22.4131Z" fill="#FF0000"/>
<path fill-rule="evenodd" clip-rule="evenodd" d="M41.3546 30.5439C36.4228 29.2224 31.3535 32.1491 30.0321 37.081C28.7106 42.0128 31.6373 47.082 36.5692 48.4035L47.1999 51.252L51.9854 33.3924L41.3546 30.5439Z" fill="#FF0000"/>
</svg>
