<svg width="55" height="54" viewBox="0 0 55 54" fill="none" xmlns="http://www.w3.org/2000/svg">
<path fill-rule="evenodd" clip-rule="evenodd" d="M46.0876 0H7.47844C1.78351 5.3406 -0.860477 13.5648 1.30155 21.6336L5.34345 36.7181C7.07562 43.1827 13.2393 47.2616 19.6906 46.5962L21.215 52.2851C21.5457 53.5195 22.8138 54.2511 24.0475 53.9205C25.2812 53.5899 26.0128 52.3218 25.6822 51.0881L25.2791 49.5837C25.1858 49.2357 25.3919 48.8787 25.7393 48.7857C26.086 48.6928 26.4417 48.8992 26.5349 49.2472L26.938 50.7516C27.2688 51.986 28.5368 52.7176 29.7712 52.3868C31.0042 52.0564 31.7365 50.7882 31.4059 49.5545L31.0028 48.05C30.9095 47.7021 31.1156 47.3451 31.463 47.252C31.809 47.1593 32.166 47.3654 32.2592 47.7133L32.6624 49.2178C32.9931 50.4521 34.2612 51.1837 35.4949 50.8532C36.7273 50.5229 37.4595 49.2547 37.1289 48.021L36.7258 46.5165L36.7271 46.5162C36.6339 46.1682 36.8387 45.8116 37.1866 45.7184C37.5333 45.6255 37.8903 45.8316 37.9836 46.1795L38.3867 47.684C38.7174 48.9183 39.9855 49.6499 41.2186 49.3195C42.4516 48.9891 43.1838 47.7209 42.8533 46.4872L42.4502 44.9827C42.3569 44.6347 42.563 44.2778 42.9097 44.1849C43.257 44.0918 43.6134 44.2981 43.7066 44.646L44.1097 46.1505C44.4405 47.3848 45.7086 48.1164 46.9422 47.7859C48.1747 47.4556 48.9082 46.187 48.5776 44.9533L47.0533 39.2644C52.9736 36.6148 56.2714 30.0007 54.5392 23.5362L50.4973 8.45162C49.6361 5.23751 48.1022 2.38334 46.0876 0ZM35.7861 36.0831L29.983 30.2801L27.857 38.2077L27.8582 38.2073L35.7861 36.0831ZM14.068 24.0634C10.8496 24.9257 8.93788 28.2351 9.80058 31.4547C10.6636 34.6756 13.9742 36.5869 17.1924 35.724C20.4133 34.8609 22.3248 31.5509 21.4618 28.3301C20.5993 25.1111 17.2888 23.2003 14.068 24.0634ZM36.3884 24.3312C37.2514 27.5521 40.5612 29.463 43.7802 28.6005C47.0011 27.7374 48.9112 24.4272 48.0483 21.2069C47.1858 17.9879 43.876 16.077 40.6557 16.9399C37.4374 17.8022 35.5257 21.1116 36.3884 24.3312Z" fill="#00DED5"/>
</svg>
