<svg width="61" height="44" viewBox="0 0 61 44" fill="none" xmlns="http://www.w3.org/2000/svg">
<path fill-rule="evenodd" clip-rule="evenodd" d="M55.4885 0C55.4408 0.0498239 55.391 0.0989868 55.3389 0.147425L53.2411 2.09698C51.2706 3.92827 52.5215 7.22902 55.2099 7.29214L58.072 7.35933C61.5279 7.44046 62.123 12.3447 58.7869 13.2511L56.0241 14.0018C53.4288 14.7069 53.0036 18.2113 55.3548 19.5175L57.8579 20.908C60.8802 22.587 59.1296 27.2062 55.7548 26.4574L52.9598 25.8372C50.3344 25.2546 48.3304 28.1599 49.8057 30.4099L51.3763 32.8052C53.2728 35.6974 49.5776 38.9734 46.937 36.7408L44.7502 34.8919C42.6961 33.1551 39.5725 34.7956 39.834 37.474L40.1123 40.3253C40.4484 43.7682 35.6551 44.9505 34.3538 41.7457L33.2761 39.0915C32.2638 36.5983 28.7362 36.5983 27.7239 39.0915L26.6462 41.7457C25.3449 44.9505 20.5516 43.7682 20.8877 40.3253L21.166 37.474C21.4275 34.7956 18.3039 33.1551 16.2498 34.8919L14.063 36.7408C11.4224 38.9734 7.72724 35.6974 9.62368 32.8052L11.1943 30.4099C12.6696 28.1599 10.6656 25.2546 8.04022 25.8372L5.24525 26.4574C1.87039 27.2062 0.119797 22.587 3.14215 20.908L5.64518 19.5175C7.99638 18.2113 7.57117 14.7069 4.97593 14.0018L2.2131 13.2511C-1.12295 12.3447 -0.527898 7.44046 2.92798 7.35933L5.79005 7.29214C8.4785 7.22902 9.72942 3.92827 7.75891 2.09698L5.66115 0.147425C5.60903 0.0989868 5.55917 0.0498239 5.51152 0H55.4885Z" fill="#00DED5"/>
</svg>
