<svg width="51" height="60" viewBox="0 0 51 60" fill="none" xmlns="http://www.w3.org/2000/svg">
<path fill-rule="evenodd" clip-rule="evenodd" d="M15.1963 0H7.04357C1.67774 2.97199 -1.18979 9.31093 0.469468 15.5034L1.64953 19.9074L19.2657 15.1872L15.1963 0ZM17.7916 0H35.2552C36.5695 1.51598 37.5691 3.34586 38.1233 5.41407L39.3033 9.81811L21.6872 14.5383L17.7916 0ZM2.29799 22.33L19.9142 17.6097L24.6344 35.2259L7.01823 39.9461L2.29799 22.33ZM7.66741 42.3683L25.2836 37.6481L30.0038 55.2643L12.3876 59.9845L7.66741 42.3683ZM39.9532 12.2405L22.3371 16.9607L27.0573 34.5769L44.6735 29.8567L39.9532 12.2405ZM27.7058 36.9989L45.3219 32.2787L50.0422 49.8948L32.426 54.6151L27.7058 36.9989Z" fill="#00DED5"/>
</svg>
